<svg width="22" height="22" viewBox="0 0 22 22" fill="none" xmlns="http://www.w3.org/2000/svg">
<path opacity="0.9" d="M5.14695 2.59838C5.63186 2.13438 5.70235 1.35205 5.23311 0.872215C4.8416 0.471867 4.20769 0.425571 3.79632 0.805485C1.8382 2.61387 0.493279 5.0848 0.104583 7.87319C0.0174593 8.49819 0.526341 9.02564 1.15738 9.02564C1.74601 9.02564 2.22525 8.56384 2.32016 7.98291C2.66484 5.87309 3.68269 3.9995 5.14695 2.59838ZM19.6797 7.98461C19.7748 8.56456 20.2533 9.02564 20.8409 9.02564C21.4723 9.02564 21.9808 8.49691 21.892 7.87181C21.4965 5.08627 20.1537 2.61761 18.2056 0.809924C17.7939 0.427918 17.1576 0.474808 16.7664 0.877714C16.3019 1.35601 16.3714 2.13209 16.8519 2.59428C18.3093 3.99623 19.3335 5.87204 19.6797 7.98461ZM17.6199 9.58974C17.6199 6.40412 16.0892 3.69568 13.3884 2.68458C12.9668 2.52672 12.655 2.14254 12.655 1.69231C12.655 0.755898 11.9157 0 11 0C10.0843 0 9.34504 0.755898 9.34504 1.69231C9.34504 2.14247 9.03312 2.52653 8.61127 2.68366C5.90219 3.69273 4.38014 6.39298 4.38014 9.58974V13.6528C4.38014 14.6643 3.98411 15.6357 3.27683 16.359L2.40197 17.2536C2.25552 17.4033 2.17352 17.6045 2.17352 17.8139C2.17352 18.2566 2.53234 18.6154 2.97498 18.6154H19.025C19.4677 18.6154 19.8265 18.2566 19.8265 17.8139C19.8265 17.6045 19.7445 17.4033 19.598 17.2536L18.7232 16.359C18.0159 15.6357 17.6199 14.6643 17.6199 13.6528V9.58974ZM11 22C11.1545 22 11.2979 21.9887 11.4413 21.9549C12.1585 21.7969 12.7432 21.3005 13.0301 20.6236C13.2179 20.1627 12.7921 19.7436 12.2945 19.7436H10.9988C9.77788 19.7436 8.77068 20.9418 9.78179 21.6261C10.1307 21.8622 10.5489 22 11 22Z" fill="#1A1C1E"/>
</svg>
