<svg width="26" height="22" viewBox="0 0 26 22" fill="none" xmlns="http://www.w3.org/2000/svg">
<path d="M11.9506 21.2222C11.0301 21.2222 10.2839 20.476 10.2839 19.5556C10.2839 18.6351 11.0301 17.8889 11.9506 17.8889H14.0494C14.9698 17.8889 15.716 18.6351 15.716 19.5556C15.716 20.476 14.9698 21.2222 14.0494 21.2222H11.9506ZM6.51851 12.8889C5.59804 12.8889 4.85184 12.1427 4.85184 11.2222C4.85184 10.3017 5.59804 9.55555 6.51851 9.55555H19.4815C20.4019 9.55555 21.1481 10.3017 21.1481 11.2222C21.1481 12.1427 20.4019 12.8889 19.4815 12.8889H6.51851ZM2.44444 4.55555C1.52396 4.55555 0.777771 3.80936 0.777771 2.88889C0.777771 1.96841 1.52396 1.22222 2.44444 1.22222H23.5555C24.476 1.22222 25.2222 1.96841 25.2222 2.88889C25.2222 3.80936 24.476 4.55555 23.5555 4.55555H2.44444Z" fill="#49B0AB" stroke="black" stroke-width="0.5"/>
</svg>
