<svg width="18" height="20" viewBox="0 0 18 20" fill="none" xmlns="http://www.w3.org/2000/svg">
<path d="M17.6871 17.2913L14.2919 13.3971C14.1387 13.2214 13.9309 13.1237 13.713 13.1237H13.1579C14.0978 11.7449 14.6563 10.0107 14.6563 8.12421C14.6563 3.63636 11.4859 0 7.57305 0C3.66024 0 0.489807 3.63636 0.489807 8.12421C0.489807 12.612 3.66024 16.2484 7.57305 16.2484C9.21785 16.2484 10.7299 15.6079 11.932 14.5298V15.1665C11.932 15.4165 12.0171 15.6547 12.1703 15.8305L15.5655 19.7246C15.8856 20.0918 16.4033 20.0918 16.72 19.7246L17.6837 18.6193C18.0038 18.2521 18.0038 17.6584 17.6871 17.2913ZM7.57305 13.1237C5.16543 13.1237 3.21413 10.8896 3.21413 8.12421C3.21413 5.36276 5.16202 3.12469 7.57305 3.12469C9.98067 3.12469 11.932 5.35885 11.932 8.12421C11.932 10.8857 9.98407 13.1237 7.57305 13.1237Z" fill="white"/>
</svg>
