<svg width="22" height="22" viewBox="0 0 22 22" fill="none" xmlns="http://www.w3.org/2000/svg">
<path d="M12.8764 21.25H12.8762H9.1245C9.12448 21.25 9.12447 21.25 9.12446 21.25C8.83435 21.25 8.55204 21.1539 8.32439 20.9762C8.09658 20.7984 7.93687 20.5492 7.87361 20.2691L7.87344 20.2683L7.48163 18.5086C6.98699 18.2895 6.51507 18.0248 6.07238 17.7181L4.29638 18.2668C4.01935 18.3525 3.72062 18.3438 3.44928 18.2418C3.17796 18.1399 2.94905 17.9504 2.80188 17.7031L12.8764 21.25ZM12.8764 21.25C13.1663 21.2498 13.4483 21.1535 13.6757 20.9758C13.9032 20.7981 14.0627 20.5491 14.126 20.2692L12.8764 21.25ZM4.29225 3.73117C4.01523 3.64546 3.71649 3.65423 3.44516 3.75616C3.17372 3.85812 2.94473 4.04774 2.79757 4.29522L0.921738 7.44818L0.921735 7.44817L0.921167 7.44914C0.775281 7.69687 0.720066 7.98621 0.765494 8.26938C0.810909 8.55248 0.953894 8.8108 1.16919 9.00265L1.17003 9.00339L2.54213 10.2151C2.49149 10.7366 2.4915 11.2616 2.54215 11.7831L1.16982 12.9978L1.1691 12.9984C0.954102 13.1902 0.811312 13.4483 0.765904 13.7311C0.720484 14.014 0.775513 14.3031 0.92107 14.5507L0.921065 14.5507L0.921897 14.5521L2.80169 17.7028L4.21836 3.97M4.29225 3.73117L4.21836 3.97M4.29225 3.73117L4.29216 3.73114L4.21836 3.97M4.29225 3.73117L6.06807 4.27985M4.21836 3.97L6.11174 4.555M6.06807 4.27985C6.03394 4.30359 5.99999 4.32754 5.96624 4.35171L6.11174 4.555M6.06807 4.27985L6.18554 4.31614L6.11174 4.555M6.06807 4.27985L6.11174 4.555M17.7095 3.73313L17.7096 3.73311C17.9865 3.64771 18.2849 3.65664 18.556 3.75855C18.8271 3.8605 19.0559 4.04994 19.203 4.29715L19.203 4.29718L21.0789 7.45018L21.0796 7.45136C21.3798 7.96238 21.275 8.60823 20.8315 9.00361L20.8308 9.0042L19.4585 10.2189C19.5091 10.7405 19.5091 11.2655 19.4585 11.7871L20.8308 13.0018L20.8318 13.0026C21.2748 13.3988 21.3799 14.0434 21.0796 14.5546L21.0789 14.5558L19.2031 17.7088C19.0559 17.9563 18.8269 18.1459 18.5555 18.2478C18.2841 18.3498 17.9854 18.3585 17.7084 18.2728L15.9324 17.7241C15.4899 18.0307 15.0181 18.2952 14.5236 18.5139L14.126 20.2691L17.7095 3.73313ZM17.7095 3.73313L15.932 4.28203C15.4887 3.97628 15.0169 3.71164 14.5228 3.49156L14.1261 1.73219M17.7095 3.73313L14.1261 1.73219M14.1261 1.73219L14.126 1.732L14.1261 1.73219ZM7.48191 3.48955L7.45399 3.61448L7.69798 3.669L7.60127 3.43846C7.56136 3.4552 7.52157 3.47224 7.48191 3.48955ZM8.25504 8.351C8.98078 7.64687 9.96667 7.25 10.9962 7.25C12.0257 7.25 13.0116 7.64687 13.7373 8.351C14.4628 9.05488 14.869 10.0079 14.869 11C14.869 11.9921 14.4628 12.9451 13.7373 13.649C13.0116 14.3531 12.0257 14.75 10.9962 14.75C9.96667 14.75 8.98078 14.3531 8.25504 13.649C7.52955 12.9451 7.12342 11.9921 7.12342 11C7.12342 10.0079 7.52955 9.05488 8.25504 8.351Z" fill="#D95182" stroke="black" stroke-width="0.5"/>
</svg>
